<?xml version="1.0"?>
<svg xmlns="http://www.w3.org/2000/svg" xmlns:xlink="http://www.w3.org/1999/xlink" version="1.1" viewBox="0 0 192 192" width="50px" height="50px"><g fill="none" fill-rule="nonzero" stroke="none" stroke-width="1" stroke-linecap="butt" stroke-linejoin="miter" stroke-miterlimit="10" stroke-dasharray="" stroke-dashoffset="0" font-family="none" font-weight="none" font-size="none" text-anchor="none" style="mix-blend-mode: normal"><path d="M0,192v-192h192v192z" fill="none"/><g fill="#28b9b5"><path d="M96,11.52c-46.61153,0 -84.48,37.86847 -84.48,84.48c0,46.61153 37.86847,84.48 84.48,84.48c46.61153,0 84.48,-37.86847 84.48,-84.48c0,-46.61153 -37.86847,-84.48 -84.48,-84.48zM96,19.2c42.46095,0 76.8,34.33905 76.8,76.8c0,42.46095 -34.33905,76.8 -76.8,76.8c-42.46095,0 -76.8,-34.33905 -76.8,-76.8c0,-42.46095 34.33905,-76.8 76.8,-76.8zM134.355,57.555c-1.26682,0.02497 -2.43979,0.67319 -3.135,1.7325l-39.1725,57.7425l-27.9975,-25.98c-1.00103,-0.96323 -2.44422,-1.31077 -3.774,-0.90881c-1.32978,0.40196 -2.33882,1.49073 -2.63867,2.84718c-0.29985,1.35646 0.15622,2.7691 1.19267,3.69413l34.545,32.055l44.205,-65.145c0.82676,-1.18465 0.91878,-2.73306 0.23813,-4.00729c-0.68065,-1.27423 -2.01879,-2.0587 -3.46313,-2.03021z"/></g></g></svg>
